# This file uses centimeters as units for non-parametric coordinates.

mtllib Coffin Model.mtl
g default
v 1.667211 -0.009412 0.018417
v 0.760352 -0.009412 5.441365
v -0.760352 -0.009412 5.441365
v -1.667211 -0.009412 0.018417
v -0.850129 -0.009412 -2.169644
v 0.850129 -0.009412 -2.169644
v -0.760352 0.530541 5.441365
v 0.760352 0.530541 5.441365
v -0.850129 0.530894 -2.169644
v 0.850129 0.530894 -2.169644
v -1.667211 0.529035 0.018417
v 1.667211 0.529035 0.018417
v -0.779616 0.710689 4.997417
v 0.042153 1.361845 4.997417
v -0.981736 0.773298 -1.732504
v 0.027405 1.572926 -1.732504
v -1.693591 0.541436 0.018417
v 0.415857 2.212927 0.018417
v -1.526554 -0.187054 0.018417
v -0.816720 0.377329 5.441365
v 0.375167 1.321761 5.441365
v 1.086873 1.883784 0.018417
v -0.887304 0.321850 -2.169644
v 0.445312 1.377793 -2.169644
vt 0.970507 0.677315
vt 0.651733 0.677042
vt 0.738872 0.158677
vt 0.884253 0.158801
vt 0.892215 0.886429
vt 0.729668 0.886290
vt 0.203374 0.019342
vt 0.456433 0.019095
vt 0.411412 0.051470
vt 0.248532 0.050585
vt 0.231240 0.935675
vt 0.427980 0.936350
vt 0.463320 0.986079
vt 0.197293 0.986429
vt 0.624504 0.683056
vt 0.560988 0.682724
vt 0.035345 0.683196
vt 0.099213 0.682498
vt 0.184232 0.681558
vt 0.275530 0.108131
vt 0.384371 0.108397
vt 0.475854 0.681792
vt 0.399137 0.870377
vt 0.260581 0.870779
vt 0.248532 0.050585
vt 0.099213 0.682498
vt 0.411412 0.051470
vt 0.560988 0.682724
vt 0.231240 0.935675
vt 0.427980 0.936350
vn 0.000000 -1.000000 -0.000000
vn 0.000000 -1.000000 -0.000000
vn 0.000000 -1.000000 0.000000
vn 0.000000 -1.000000 0.000000
vn 0.000000 -1.000000 -0.000000
vn 0.000000 -1.000000 -0.000000
vn 0.000000 0.000000 1.000000
vn 0.000000 0.000000 1.000000
vn 0.000000 0.000000 1.000000
vn 0.000000 0.000000 1.000000
vn 0.000000 0.000000 -1.000000
vn 0.000000 0.000000 -1.000000
vn 0.000000 0.000000 -1.000000
vn 0.000000 0.000000 -1.000000
vn 0.986304 0.000000 0.164936
vn 0.999931 -0.000000 0.011759
vn 0.999931 -0.000000 0.011722
vn 0.986304 0.000000 0.164936
vn -0.999931 -0.000000 0.011759
vn -0.986304 0.000000 0.164936
vn -0.986304 0.000000 0.164936
vn -0.999931 -0.000000 0.011722
vn -0.936813 -0.000000 -0.349831
vn -0.936813 -0.000000 -0.349831
vn 0.936813 -0.000000 -0.349831
vn 0.936813 -0.000000 -0.349831
vn -0.620759 0.783407 0.030511
vn -0.618692 0.780799 0.087029
vn -0.618692 0.780799 0.087029
vn -0.620759 0.783407 0.030511
vn -0.614294 0.775248 -0.147086
vn -0.614294 0.775248 -0.147086
vn -0.985960 -0.054684 0.157771
vn -0.985960 -0.054684 0.157771
vn -0.997851 -0.065520 -0.001054
vn -0.997857 -0.064952 0.007925
vn -0.547233 0.690616 0.472848
vn -0.547233 0.690616 0.472848
vn -0.547233 0.690616 0.472848
vn -0.547233 0.690616 0.472848
vn 0.278624 0.947353 0.157771
vn 0.278624 0.947353 0.157771
vn 0.291339 0.956587 0.007925
vn 0.291891 0.956451 -0.001055
vn -0.937763 -0.082863 -0.337244
vn -0.937763 -0.082863 -0.337244
vn -0.451704 0.570057 -0.686294
vn -0.451704 0.570056 -0.686294
vn -0.451704 0.570056 -0.686294
vn -0.451704 0.570056 -0.686294
vn 0.295039 0.893990 -0.337244
vn 0.295039 0.893990 -0.337244
s 1
g polySurface6
usemtl initialShadingGroup
f 4/1/1 1/2/2 2/3/3 3/4/4
f 5/5/5 6/6/6 1/2/2 4/1/1
s off
f 3/7/7 2/8/8 8/9/9 7/10/10
f 9/11/11 10/12/12 6/13/13 5/14/14
s 2
f 2/8/15 1/15/16 12/16/17 8/9/18
s 3
f 4/17/19 3/7/20 7/10/21 11/18/22
f 5/14/23 4/17/19 11/18/22 9/11/24
s 2
f 10/12/25 12/16/17 1/15/16 6/13/26
s 4
f 17/19/27 13/20/28 14/21/29 18/22/30
f 18/22/30 16/23/31 15/24/32 17/19/27
s 5
f 20/25/33 13/20/34 17/19/35 19/26/36
s off
f 13/20/37 20/25/38 21/27/39 14/21/40
s 6
f 14/21/41 21/27/42 22/28/43 18/22/44
s 5
f 15/24/45 23/29/46 19/26/36 17/19/35
s off
f 23/29/47 15/24/48 16/23/49 24/30/50
s 6
f 24/30/51 16/23/52 18/22/44 22/28/43
