# This file uses centimeters as units for non-parametric coordinates.

mtllib Model.mtl
g default
v 0.659504 3.087088 -0.659504
v 0.000000 3.087088 -0.932680
v -0.659504 3.087088 -0.659504
v -0.932680 3.087088 0.000000
v -0.659504 3.087088 0.659504
v 0.000000 3.087088 0.932680
v 0.659505 3.087088 0.659505
v 0.932680 3.087088 0.000000
v 0.707107 3.939883 -0.707107
v 0.000000 3.939883 -1.000000
v -0.707107 3.939883 -0.707107
v -1.000000 3.939883 0.000000
v -0.707107 3.939883 0.707107
v 0.000000 3.939883 1.000000
v 0.707107 3.939883 0.707107
v 1.000000 3.939883 0.000000
v 0.000000 3.354968 1.000000
v -0.707107 3.354968 0.707107
v -1.000000 3.354968 0.000000
v -0.707107 3.354968 -0.707107
v 0.000000 3.354968 -1.000000
v 0.707107 3.354968 -0.707107
v 1.000000 3.354968 0.000000
v 0.707107 3.354968 0.707107
v 0.287091 2.747802 -0.287091
v 0.000000 2.747802 -0.406008
v -0.287091 2.747802 -0.287091
v -0.406008 2.747802 0.000000
v -0.287091 2.747802 0.287091
v 0.000000 2.747802 0.406008
v 0.287091 2.747802 0.287091
v 0.406008 2.747802 0.000000
v 0.198950 0.378844 -0.198950
v 0.000000 0.378844 -0.281360
v 0.000000 0.378844 0.000000
v -0.198950 0.378844 -0.198950
v -0.281360 0.378844 0.000000
v -0.198950 0.378844 0.198950
v 0.000000 0.378844 0.281360
v 0.198950 0.378844 0.198950
v 0.281360 0.378844 0.000000
v 0.611921 3.609175 -0.611921
v 0.000000 3.609175 -0.865386
v -0.611921 3.609175 -0.611921
v -0.865386 3.609175 0.000000
v -0.611921 3.609175 0.611921
v 0.000000 3.609175 0.865386
v 0.611921 3.609175 0.611921
v 0.865386 3.609175 0.000000
v 0.582948 3.243626 -0.582948
v 0.000000 3.243626 -0.824414
v 0.000000 3.243626 0.000000
v -0.582948 3.243626 -0.582948
v -0.824413 3.243626 0.000000
v -0.582948 3.243626 0.582948
v 0.000000 3.243626 0.824414
v 0.582949 3.243626 0.582949
v 0.824414 3.243626 0.000000
vt 0.403534 0.812359
vt 0.398478 0.836957
vt 0.391785 0.193721
vt 0.466768 0.813897
vt 0.467142 0.835567
vt 0.525457 0.806373
vt 0.531352 0.826909
vt 0.587179 0.787655
vt 0.598486 0.810051
vt 0.554448 0.228590
vt 0.563164 0.209007
vt 0.502424 0.216630
vt 0.506390 0.195877
vt 0.452007 0.209830
vt 0.451408 0.187611
vt 0.426643 0.518247
vt 0.450111 0.484133
vt 0.473504 0.501650
vt 0.448177 0.515506
vt 0.470187 0.519577
vt 0.510951 0.491822
vt 0.496985 0.482334
vt 0.482013 0.476711
vt 0.465163 0.476867
vt 0.386010 0.102618
vt 0.431926 0.942353
vt 0.556085 0.054499
vt 0.483886 0.915296
vt 0.538100 0.908178
vt 0.631522 0.121545
vt 0.573905 0.130491
vt 0.519460 0.121559
vt 0.461514 0.097244
vt 0.572211 0.174017
vt 0.640035 0.179309
vt 0.537398 0.864140
vt 0.472154 0.872963
vt 0.405197 0.891901
vt 0.386347 0.151351
vt 0.452618 0.147924
vt 0.511720 0.163094
vt 0.439662 0.762670
vt 0.472569 0.762620
vt 0.506312 0.757990
vt 0.537859 0.749657
vt 0.525084 0.269225
vt 0.491205 0.263388
vt 0.456067 0.261544
vt 0.413061 0.903969
vt 0.386555 0.139198
vt 0.474217 0.885223
vt 0.538035 0.876367
vt 0.637109 0.165126
vt 0.574436 0.161598
vt 0.513767 0.150553
vt 0.453370 0.135124
vt 0.338865 0.237968
vt 0.326505 0.216079
vt 0.319989 0.109283
vt 0.350510 0.026110
vt 0.429465 0.056496
vt 0.398287 0.215134
vt 0.391218 0.273616
vt 0.421993 0.264923
vt 0.437069 0.496744
vt 0.315657 0.162264
vt 0.319308 0.149151
vt 0.593835 0.920471
vt 0.520247 0.983364
vt 0.602352 0.878294
vt 0.606664 0.864772
vt 0.492715 0.515564
vt 0.555066 0.280336
vt 0.609984 0.253260
vt 0.625038 0.232960
vn 0.561240 -0.608291 -0.561240
vn 0.000000 -0.608292 -0.793714
vn -0.000000 -0.073660 -0.997283
vn 0.705186 -0.073660 -0.705186
vn -0.561240 -0.608291 -0.561240
vn -0.705186 -0.073660 -0.705186
vn -0.793714 -0.608291 0.000000
vn -0.997283 -0.073660 -0.000000
vn -0.561240 -0.608291 0.561240
vn -0.705186 -0.073660 0.705186
vn -0.000000 -0.608291 0.793714
vn -0.000000 -0.073660 0.997283
vn 0.561240 -0.608291 0.561240
vn 0.705186 -0.073660 0.705186
vn 0.793714 -0.608292 -0.000000
vn 0.997283 -0.073660 -0.000000
vn 0.000000 -0.088272 -0.996096
vn 0.704346 -0.088272 -0.704347
vn 0.000000 -1.000000 -0.000000
vn -0.704347 -0.088272 -0.704346
vn -0.996096 -0.088272 0.000000
vn -0.704347 -0.088272 0.704346
vn -0.000000 -0.088272 0.996096
vn 0.704346 -0.088272 0.704346
vn 0.996096 -0.088272 -0.000000
vn -0.521550 0.675256 0.521550
vn -0.000000 0.675256 0.737583
vn 0.000000 1.000000 0.000000
vn 0.521550 0.675256 0.521550
vn 0.737583 0.675256 0.000000
vn 0.521550 0.675256 -0.521550
vn 0.000000 0.675256 -0.737583
vn -0.521550 0.675256 -0.521550
vn -0.737583 0.675256 0.000000
vn -0.000000 0.350167 0.936687
vn -0.662338 0.350167 0.662338
vn -0.936687 0.350167 0.000000
vn -0.662338 0.350167 -0.662338
vn -0.000000 0.350167 -0.936687
vn 0.662338 0.350167 -0.662338
vn 0.936687 0.350167 -0.000000
vn 0.662338 0.350167 0.662338
vn 0.648568 -0.398396 -0.648568
vn 0.000000 -0.398398 -0.917213
vn -0.648568 -0.398396 -0.648568
vn -0.917213 -0.398398 0.000000
vn -0.648568 -0.398396 0.648568
vn -0.000000 -0.398398 0.917213
vn 0.648568 -0.398396 0.648568
vn 0.917213 -0.398398 -0.000000
vn -0.000000 0.258857 0.965916
vn -0.683005 0.258857 0.683006
vn 0.683006 0.258857 0.683006
vn 0.965916 0.258857 -0.000000
vn 0.683006 0.258857 -0.683006
vn 0.000000 0.258857 -0.965916
vn -0.683006 0.258857 -0.683006
vn -0.965916 0.258857 -0.000000
s 1
g pCylinder1
usemtl initialShadingGroup
f 1/62/1 2/57/2 21/58/3 22/3/4
f 2/1/2 3/4/5 20/5/6 21/2/3
f 3/4/5 4/6/7 19/7/8 20/5/6
f 4/6/7 5/8/9 18/9/10 19/7/8
f 5/74/9 6/10/11 17/11/12 18/75/10
f 6/10/11 7/12/13 24/13/14 17/11/12
f 7/12/13 8/14/15 23/15/16 24/13/14
f 8/14/15 1/62/1 22/3/4 23/15/16
f 34/65/17 33/17/18 35/18/19
f 36/19/20 34/65/17 35/18/19
f 37/20/21 36/19/20 35/18/19
f 38/72/22 37/20/21 35/18/19
f 39/22/23 38/21/22 35/18/19
f 40/23/24 39/22/23 35/18/19
f 41/24/25 40/23/24 35/18/19
f 33/17/18 41/24/25 35/18/19
f 50/25/26 51/59/27 52/60/28
f 51/26/27 53/28/29 52/69/28
f 53/28/29 54/29/30 52/69/28
f 54/29/30 55/68/31 52/69/28
f 55/30/31 56/31/32 52/27/28
f 56/31/32 57/32/33 52/27/28
f 57/32/33 58/33/34 52/27/28
f 58/61/34 50/25/26 52/60/28
f 18/75/10 17/11/12 14/34/35 13/35/36
f 19/7/8 18/9/10 13/71/36 12/36/37
f 20/5/6 19/7/8 12/36/37 11/37/38
f 21/2/3 20/5/6 11/37/38 10/38/39
f 22/3/4 21/58/3 10/66/39 9/39/40
f 23/15/16 22/3/4 9/39/40 16/40/41
f 24/13/14 23/15/16 16/40/41 15/41/42
f 17/11/12 24/13/14 15/41/42 14/34/35
f 2/57/2 1/62/1 25/64/43 26/63/44
f 3/4/5 2/1/2 26/42/44 27/43/45
f 4/6/7 3/4/5 27/43/45 28/44/46
f 5/8/9 4/6/7 28/44/46 29/45/47
f 6/10/11 5/74/9 29/73/47 30/46/48
f 7/12/13 6/10/11 30/46/48 31/47/49
f 8/14/15 7/12/13 31/47/49 32/48/50
f 1/62/1 8/14/15 32/48/50 25/64/43
f 26/63/44 25/64/43 33/17/18 34/65/17
f 27/43/45 26/42/44 34/16/17 36/19/20
f 28/44/46 27/43/45 36/19/20 37/20/21
f 29/45/47 28/44/46 37/20/21 38/72/22
f 30/46/48 29/73/47 38/21/22 39/22/23
f 31/47/49 30/46/48 39/22/23 40/23/24
f 32/48/50 31/47/49 40/23/24 41/24/25
f 25/64/43 32/48/50 41/24/25 33/17/18
f 9/39/40 10/66/39 43/67/51 42/50/52
f 10/38/39 11/37/38 44/51/53 43/49/51
f 11/37/38 12/36/37 45/52/54 44/51/53
f 12/36/37 13/71/36 46/70/55 45/52/54
f 13/35/36 14/34/35 47/54/56 46/53/55
f 14/34/35 15/41/42 48/55/57 47/54/56
f 15/41/42 16/40/41 49/56/58 48/55/57
f 16/40/41 9/39/40 42/50/52 49/56/58
f 42/50/52 43/67/51 51/59/27 50/25/26
f 43/49/51 44/51/53 53/28/29 51/26/27
f 44/51/53 45/52/54 54/29/30 53/28/29
f 45/52/54 46/70/55 55/68/31 54/29/30
f 46/53/55 47/54/56 56/31/32 55/30/31
f 47/54/56 48/55/57 57/32/33 56/31/32
f 48/55/57 49/56/58 58/33/34 57/32/33
f 49/56/58 42/50/52 50/25/26 58/33/34
